<svg width="32" height="32" viewBox="0 0 32 32" fill="none" xmlns="http://www.w3.org/2000/svg">
  <defs>
    <linearGradient id="bookGradient" x1="0%" y1="0%" x2="100%" y2="100%">
      <stop offset="0%" style="stop-color:#5c94bf;stop-opacity:1" />
      <stop offset="100%" style="stop-color:#4681b4;stop-opacity:1" />
    </linearGradient>
  </defs>
  
  <!-- Book Shape -->
  <path d="M6 4C6 2.89543 6.89543 2 8 2H24C25.1046 2 26 2.89543 26 4V28C26 29.1046 25.1046 30 24 30H8C6.89543 30 6 29.1046 6 28V4Z" fill="url(#bookGradient)"/>
  
  <!-- AI Spark -->
  <path d="M22 8L20 10L22 12L24 10L22 8Z" fill="#c89968" opacity="0.9"/>
  
  <!-- Book Pages -->
  <line x1="10" y1="10" x2="18" y2="10" stroke="white" stroke-width="1.5" stroke-linecap="round" opacity="0.8"/>
  <line x1="10" y1="14" x2="18" y2="14" stroke="white" stroke-width="1.5" stroke-linecap="round" opacity="0.8"/>
  <line x1="10" y1="18" x2="16" y2="18" stroke="white" stroke-width="1.5" stroke-linecap="round" opacity="0.8"/>
  
  <!-- Book Spine -->
  <path d="M6 4C6 2.89543 6.89543 2 8 2V30C6.89543 30 6 29.1046 6 28V4Z" fill="#376ea4" opacity="0.3"/>
</svg>
